<?xml version="1.0" encoding="utf-8"?>
<!-- Generator: Adobe Illustrator 17.0.0, SVG Export Plug-In . SVG Version: 6.00 Build 0)  -->
<!DOCTYPE svg PUBLIC "-//W3C//DTD SVG 1.0//EN" "http://www.w3.org/TR/2001/REC-SVG-20010904/DTD/svg10.dtd">
<svg version="1.0" id="Isolation_Mode" xmlns="http://www.w3.org/2000/svg" xmlns:xlink="http://www.w3.org/1999/xlink" x="0px"
	 y="0px" width="13px" height="13px" viewBox="0 0 13 13" enable-background="new 0 0 13 13" xml:space="preserve">
<g>
	<g>
		<path fill="#1A1617" d="M11.74,12.926c-0.288,0-0.576-0.11-0.796-0.33L0.33,1.982c-0.44-0.439-0.44-1.152,0-1.592
			c0.44-0.44,1.152-0.44,1.592,0l10.614,10.614c0.44,0.439,0.44,1.152,0,1.592C12.316,12.816,12.028,12.926,11.74,12.926z"/>
	</g>
	<g>
		<path fill="#1A1617" d="M1.126,12.926c-0.288,0-0.576-0.11-0.796-0.33c-0.44-0.439-0.44-1.152,0-1.592L10.943,0.39
			c0.44-0.44,1.152-0.44,1.592,0c0.44,0.439,0.44,1.152,0,1.592L1.922,12.596C1.702,12.816,1.414,12.926,1.126,12.926z"/>
	</g>
</g>
</svg>
